<svg version="1.1" xmlns="http://www.w3.org/2000/svg" xmlns:xlink="http://www.w3.org/1999/xlink" width="24" height="24" viewBox="0,0,256,256"><g fill="#7a7b7a" fill-rule="evenodd" stroke="none" stroke-width="1" stroke-linecap="butt" stroke-linejoin="miter" stroke-miterlimit="10" stroke-dasharray="" stroke-dashoffset="0" font-family="none" font-weight="none" font-size="none" text-anchor="none" style="mix-blend-mode: normal"><g transform="translate(-4.89742,-4.70258) scale(10.66667,10.66667)"><path d="M14.9,6.5c0.8,0.33333 1.5,0.8 2.1,1.4c0.6,0.6 1.06667,1.3 1.4,2.1c0.33333,0.73333 0.5,1.53333 0.5,2.4c0,2.6 -1.6,5 -4,6c-2.4,1 -5.2,0.4 -7,-1.4c-1.8,-1.8 -2.4,-4.6 -1.4,-7c1,-2.4 3.3,-4 5.9,-4c0.86667,0 1.7,0.16667 2.5,0.5zM15.5,12.9c0.13333,-0.13333 0.2,-0.3 0.2,-0.5c0,-0.13333 -0.06667,-0.26667 -0.2,-0.4c-0.13333,-0.13333 -0.3,-0.2 -0.5,-0.2h-1.9v-1.9c0,-0.2 -0.06667,-0.36667 -0.2,-0.5c-0.13333,-0.13333 -0.3,-0.2 -0.5,-0.2c-0.13333,0 -0.26667,0.06667 -0.4,0.2c-0.13333,0.13333 -0.2,0.3 -0.2,0.5v1.9h-1.9c-0.2,0 -0.36667,0.06667 -0.5,0.2c-0.13333,0.13333 -0.2,0.3 -0.2,0.5c0,0.13333 0.06667,0.26667 0.2,0.4c0.13333,0.13333 0.3,0.2 0.5,0.2h1.9v1.9c0,0.2 0.06667,0.36667 0.2,0.5c0.13333,0.13333 0.3,0.2 0.5,0.2c0.13333,0 0.26667,-0.06667 0.4,-0.2c0.13333,-0.13333 0.2,-0.3 0.2,-0.5v-1.9h1.9c0.2,0 0.36667,-0.06667 0.5,-0.2z"></path></g></g></svg>