<svg version="1.1" xmlns="http://www.w3.org/2000/svg" xmlns:xlink="http://www.w3.org/1999/xlink" width="24px" height="24px" viewBox="0,0,256,256"><g fill="#7a7b7a" fill-rule="nonzero" stroke="none" stroke-width="1" stroke-linecap="butt" stroke-linejoin="miter" stroke-miterlimit="10" stroke-dasharray="" stroke-dashoffset="0" font-family="none" font-weight="none" font-size="none" text-anchor="none" style="mix-blend-mode: normal"><g transform="translate(-0.00151,0.00151) scale(10.66667,10.66667)"><path d="M20.548,3.452c0.28957,0.28923 0.45228,0.68172 0.45228,1.091c0,0.40928 -0.16271,0.80177 -0.45228,1.091l-7.636,7.636l-3.273,1.091l1.091,-3.273l7.636,-7.636c0.28923,-0.28957 0.68172,-0.45228 1.091,-0.45228c0.40928,0 0.80177,0.16271 1.091,0.45228zM4,21h15c0.55228,0 1,-0.44772 1,-1v-8c0,-0.55228 -0.44772,-1 -1,-1c-0.55228,0 -1,0.44772 -1,1v7h-13v-13h7c0.55228,0 1,-0.44772 1,-1c0,-0.55228 -0.44772,-1 -1,-1h-8c-0.55228,0 -1,0.44772 -1,1v15c0,0.55228 0.44772,1 1,1z"></path></g></g></svg>