<svg version="1.1" xmlns="http://www.w3.org/2000/svg" xmlns:xlink="http://www.w3.org/1999/xlink" width="24" height="24" viewBox="0,0,256,256"><g fill="#7a7b7a" fill-rule="evenodd" stroke="none" stroke-width="1" stroke-linecap="butt" stroke-linejoin="miter" stroke-miterlimit="10" stroke-dasharray="" stroke-dashoffset="0" font-family="none" font-weight="none" font-size="none" text-anchor="none" style="mix-blend-mode: normal"><g transform="translate(-2.62578,-2.70755) scale(10.66667,10.66667)"><path d="M14.6,6.5c0.8,0.33333 1.5,0.76667 2.1,1.3c0.53333,0.6 0.96667,1.3 1.3,2.1c0.33333,0.73333 0.5,1.5 0.5,2.3c0,2.6 -1.5,4.9 -3.9,5.8c-2.3,1 -5,0.5 -6.8,-1.3c-1.8,-1.8 -2.3,-4.5 -1.3,-6.8c0.9,-2.4 3.2,-3.9 5.8,-3.9c0.8,0 1.56667,0.16667 2.3,0.5zM16,10.7c0,-0.13333 -0.06667,-0.26667 -0.2,-0.4c-0.06667,-0.13333 -0.2,-0.2 -0.4,-0.2c-0.2,0 -0.33333,0.03333 -0.4,0.1l-3.4,3.1l-1.4,-1.5c-0.13333,-0.13333 -0.3,-0.2 -0.5,-0.2c-0.13333,0 -0.26667,0.06667 -0.4,0.2c-0.13333,0.13333 -0.2,0.26667 -0.2,0.4c0,0.2 0.06667,0.36667 0.2,0.5l1.9,1.9c0.06667,0.06667 0.13333,0.1 0.2,0.1c0.06667,0 0.13333,0 0.2,0c0.06667,0.06667 0.13333,0.06667 0.2,0c0.13333,0 0.2,-0.03333 0.2,-0.1l3.8,-3.5c0.13333,-0.06667 0.2,-0.2 0.2,-0.4z"></path></g></g></svg>