<svg version="1.1" xmlns="http://www.w3.org/2000/svg" xmlns:xlink="http://www.w3.org/1999/xlink" width="24px" height="24px" viewBox="0,0,256,256"><g fill="#7a7b7a" fill-rule="nonzero" stroke="none" stroke-width="1" stroke-linecap="butt" stroke-linejoin="miter" stroke-miterlimit="10" stroke-dasharray="" stroke-dashoffset="0" font-family="none" font-weight="none" font-size="none" text-anchor="none" style="mix-blend-mode: normal"><g transform="translate(0,-0.00002) scale(10.66667,10.66667)"><path d="M22,5c0,0.55228 -0.44772,1 -1,1h-18c-0.55228,0 -1,-0.44772 -1,-1c0,-0.55228 0.44772,-1 1,-1h5v-1c0,-0.55228 0.44772,-1 1,-1h6c0.55228,0 1,0.44772 1,1v1h5c0.55228,0 1,0.44772 1,1zM4.934,21.071l-0.934,-13.071h16l-0.934,13.071c-0.03732,0.52438 -0.47429,0.93033 -1,0.929h-12.135c-0.52455,-0.00025 -0.95976,-0.40577 -0.997,-0.929zM15,18c0,0.55228 0.44772,1 1,1c0.55228,0 1,-0.44772 1,-1v-6c0,-0.55228 -0.44772,-1 -1,-1c-0.55228,0 -1,0.44772 -1,1zM11,18c0,0.55228 0.44772,1 1,1c0.55228,0 1,-0.44772 1,-1v-6c0,-0.55228 -0.44772,-1 -1,-1c-0.55228,0 -1,0.44772 -1,1zM7,18c0,0.55228 0.44772,1 1,1c0.55228,0 1,-0.44772 1,-1v-6c0,-0.55228 -0.44772,-1 -1,-1c-0.55228,0 -1,0.44772 -1,1z"></path></g></g></svg>